<svg width="160" height="40" viewBox="0 0 86 20" fill="none" xmlns="http://www.w3.org/2000/svg">
<g clip-path="url(#clip0_1_6)">
<path d="M1.08 9V0.599999H4.056C4.976 0.599999 5.732 0.776 6.324 1.128C6.924 1.48 7.368 1.972 7.656 2.604C7.952 3.228 8.1 3.964 8.1 4.812C8.1 5.644 7.952 6.376 7.656 7.008C7.368 7.632 6.924 8.12 6.324 8.472C5.732 8.824 4.976 9 4.056 9H1.08ZM2.832 7.488H4.092C4.564 7.488 4.96 7.396 5.28 7.212C5.6 7.028 5.84 6.74 6 6.348C6.168 5.948 6.252 5.432 6.252 4.8C6.252 4.168 6.168 3.656 6 3.264C5.84 2.872 5.6 2.584 5.28 2.4C4.96 2.208 4.564 2.112 4.092 2.112H2.832V7.488ZM11.2159 9.144C10.6719 9.144 10.2079 9.016 9.82388 8.76C9.43988 8.504 9.14788 8.14 8.94788 7.668C8.74788 7.188 8.64788 6.62 8.64788 5.964C8.64788 5.292 8.75588 4.72 8.97188 4.248C9.19588 3.768 9.50388 3.4 9.89588 3.144C10.2959 2.888 10.7559 2.76 11.2759 2.76C11.6119 2.76 11.9039 2.82 12.1519 2.94C12.3999 3.06 12.6079 3.216 12.7759 3.408C12.9439 3.592 13.0799 3.796 13.1839 4.02V2.904H14.8639L14.8519 9H13.1839V8.004C13.0799 8.22 12.9399 8.416 12.7639 8.592C12.5959 8.76 12.3839 8.896 12.1279 9C11.8799 9.096 11.5759 9.144 11.2159 9.144ZM11.8159 7.848C12.0879 7.84 12.3239 7.76 12.5239 7.608C12.7319 7.456 12.8919 7.24 13.0039 6.96C13.1239 6.672 13.1839 6.34 13.1839 5.964C13.1839 5.612 13.1239 5.296 13.0039 5.016C12.8919 4.728 12.7319 4.5 12.5239 4.332C12.3239 4.164 12.0879 4.08 11.8159 4.08C11.5279 4.08 11.2759 4.164 11.0599 4.332C10.8519 4.5 10.6879 4.728 10.5679 5.016C10.4559 5.296 10.3999 5.612 10.3999 5.964C10.3999 6.348 10.4559 6.684 10.5679 6.972C10.6879 7.252 10.8519 7.468 11.0599 7.62C11.2759 7.772 11.5279 7.848 11.8159 7.848ZM15.9961 9V2.904H17.6761V3.84C17.7401 3.696 17.8281 3.56 17.9401 3.432C18.0521 3.296 18.1801 3.18 18.3241 3.084C18.4761 2.98 18.6441 2.9 18.8281 2.844C19.0121 2.788 19.2041 2.76 19.4041 2.76C19.9401 2.76 20.3761 2.864 20.7121 3.072C21.0561 3.28 21.3081 3.572 21.4681 3.948C21.6281 4.316 21.7081 4.74 21.7081 5.22V9H20.0281V5.448C20.0281 5 19.9441 4.664 19.7761 4.44C19.6081 4.216 19.3521 4.104 19.0081 4.104C18.6801 4.104 18.4161 4.184 18.2161 4.344C18.0241 4.496 17.8841 4.724 17.7961 5.028C17.7161 5.332 17.6761 5.7 17.6761 6.132V9H15.9961ZM23.6524 2.292C23.3804 2.292 23.1444 2.192 22.9444 1.992C22.7444 1.784 22.6444 1.544 22.6444 1.272C22.6444 0.992 22.7444 0.752 22.9444 0.551999C23.1444 0.352 23.3804 0.252 23.6524 0.252C23.9404 0.252 24.1804 0.352 24.3724 0.551999C24.5644 0.752 24.6604 0.992 24.6604 1.272C24.6604 1.544 24.5644 1.784 24.3724 1.992C24.1804 2.192 23.9404 2.292 23.6524 2.292ZM22.8124 9V2.904H24.4924V9H22.8124ZM28.3287 9.156C27.7927 9.156 27.2807 9.032 26.7927 8.784C26.3127 8.536 25.9207 8.172 25.6167 7.692C25.3207 7.212 25.1727 6.624 25.1727 5.928C25.1727 5.384 25.2607 4.916 25.4367 4.524C25.6127 4.124 25.8487 3.796 26.1447 3.54C26.4487 3.276 26.7847 3.08 27.1527 2.952C27.5287 2.824 27.9127 2.76 28.3047 2.76C28.9047 2.76 29.4247 2.892 29.8647 3.156C30.3127 3.412 30.6567 3.784 30.8967 4.272C31.1447 4.76 31.2687 5.344 31.2687 6.024V6.42H26.4327L26.4207 5.388H29.5527C29.5527 5.284 29.5247 5.164 29.4687 5.028C29.4127 4.892 29.3287 4.764 29.2167 4.644C29.1127 4.516 28.9807 4.412 28.8207 4.332C28.6687 4.244 28.4927 4.2 28.2927 4.2C27.9567 4.2 27.6807 4.276 27.4647 4.428C27.2487 4.58 27.0847 4.788 26.9727 5.052C26.8687 5.308 26.8167 5.6 26.8167 5.928C26.8167 6.296 26.8687 6.616 26.9727 6.888C27.0847 7.152 27.2527 7.356 27.4767 7.5C27.7087 7.644 28.0007 7.716 28.3527 7.716C28.4727 7.716 28.6087 7.688 28.7607 7.632C28.9127 7.568 29.0567 7.476 29.1927 7.356C29.3287 7.236 29.4327 7.092 29.5047 6.924L31.0887 7.392C30.9047 7.832 30.6607 8.184 30.3567 8.448C30.0607 8.704 29.7367 8.888 29.3847 9C29.0327 9.104 28.6807 9.156 28.3287 9.156ZM32.1454 9V0.599999H33.8254V9H32.1454ZM1.08 19V10.6H2.832V13.876H6.216V10.6H7.968V19H6.216V15.388H2.832V19H1.08ZM11.8273 19.156C11.2913 19.156 10.7793 19.032 10.2913 18.784C9.81131 18.536 9.41931 18.172 9.11531 17.692C8.81931 17.212 8.67131 16.624 8.67131 15.928C8.67131 15.384 8.75931 14.916 8.93531 14.524C9.11131 14.124 9.34731 13.796 9.64331 13.54C9.94731 13.276 10.2833 13.08 10.6513 12.952C11.0273 12.824 11.4113 12.76 11.8033 12.76C12.4033 12.76 12.9233 12.892 13.3633 13.156C13.8113 13.412 14.1553 13.784 14.3953 14.272C14.6433 14.76 14.7673 15.344 14.7673 16.024V16.42H9.93131L9.91931 15.388H13.0513C13.0513 15.284 13.0233 15.164 12.9673 15.028C12.9113 14.892 12.8273 14.764 12.7153 14.644C12.6113 14.516 12.4793 14.412 12.3193 14.332C12.1673 14.244 11.9913 14.2 11.7913 14.2C11.4553 14.2 11.1793 14.276 10.9633 14.428C10.7473 14.58 10.5833 14.788 10.4713 15.052C10.3673 15.308 10.3153 15.6 10.3153 15.928C10.3153 16.296 10.3673 16.616 10.4713 16.888C10.5833 17.152 10.7513 17.356 10.9753 17.5C11.2073 17.644 11.4993 17.716 11.8513 17.716C11.9713 17.716 12.1073 17.688 12.2593 17.632C12.4113 17.568 12.5553 17.476 12.6913 17.356C12.8273 17.236 12.9313 17.092 13.0033 16.924L14.5873 17.392C14.4033 17.832 14.1593 18.184 13.8553 18.448C13.5593 18.704 13.2353 18.888 12.8833 19C12.5313 19.104 12.1793 19.156 11.8273 19.156ZM15.5508 19V12.904H17.2308V13.84C17.2948 13.696 17.3828 13.56 17.4948 13.432C17.6068 13.296 17.7348 13.18 17.8788 13.084C18.0308 12.98 18.1988 12.9 18.3828 12.844C18.5668 12.788 18.7588 12.76 18.9588 12.76C19.4948 12.76 19.9308 12.864 20.2668 13.072C20.6108 13.28 20.8628 13.572 21.0228 13.948C21.1828 14.316 21.2628 14.74 21.2628 15.22V19H19.5828V15.448C19.5828 15 19.4988 14.664 19.3308 14.44C19.1628 14.216 18.9068 14.104 18.5628 14.104C18.2348 14.104 17.9708 14.184 17.7708 14.344C17.5788 14.496 17.4388 14.724 17.3508 15.028C17.2708 15.332 17.2308 15.7 17.2308 16.132V19H15.5508ZM26.4527 17.788C26.3407 18.06 26.1927 18.3 26.0087 18.508C25.8327 18.708 25.6127 18.864 25.3487 18.976C25.0927 19.088 24.7887 19.144 24.4367 19.144C23.9167 19.144 23.4607 19.016 23.0687 18.76C22.6847 18.504 22.3887 18.14 22.1807 17.668C21.9727 17.188 21.8687 16.62 21.8687 15.964C21.8687 15.292 21.9767 14.72 22.1927 14.248C22.4167 13.768 22.7247 13.4 23.1167 13.144C23.5167 12.888 23.9767 12.76 24.4967 12.76C24.8327 12.76 25.1207 12.82 25.3607 12.94C25.6087 13.06 25.8167 13.216 25.9847 13.408C26.1607 13.592 26.3007 13.796 26.4047 14.02V10.6H28.0847L28.0727 16.984C28.0727 17.224 28.1247 17.388 28.2287 17.476C28.3327 17.564 28.5327 17.576 28.8287 17.512V18.832C28.7487 18.88 28.6167 18.924 28.4327 18.964C28.2567 18.996 28.0887 19.012 27.9287 19.012C27.7447 19.012 27.5367 18.972 27.3047 18.892C27.0727 18.804 26.8727 18.668 26.7047 18.484C26.5367 18.3 26.4527 18.068 26.4527 17.788ZM25.0487 17.848C25.3207 17.84 25.5567 17.76 25.7567 17.608C25.9647 17.456 26.1247 17.24 26.2367 16.96C26.3567 16.672 26.4167 16.34 26.4167 15.964C26.4167 15.612 26.3567 15.296 26.2367 15.016C26.1247 14.728 25.9647 14.5 25.7567 14.332C25.5567 14.164 25.3207 14.08 25.0487 14.08C24.7607 14.08 24.5087 14.164 24.2927 14.332C24.0847 14.5 23.9207 14.728 23.8007 15.016C23.6887 15.296 23.6327 15.612 23.6327 15.964C23.6327 16.348 23.6887 16.684 23.8007 16.972C23.9207 17.252 24.0847 17.468 24.2927 17.62C24.5087 17.772 24.7607 17.848 25.0487 17.848ZM32.3014 19.156C31.7654 19.156 31.2534 19.032 30.7654 18.784C30.2854 18.536 29.8934 18.172 29.5894 17.692C29.2934 17.212 29.1454 16.624 29.1454 15.928C29.1454 15.384 29.2334 14.916 29.4094 14.524C29.5854 14.124 29.8214 13.796 30.1174 13.54C30.4214 13.276 30.7574 13.08 31.1254 12.952C31.5014 12.824 31.8854 12.76 32.2774 12.76C32.8774 12.76 33.3974 12.892 33.8374 13.156C34.2854 13.412 34.6294 13.784 34.8694 14.272C35.1174 14.76 35.2414 15.344 35.2414 16.024V16.42H30.4054L30.3934 15.388H33.5254C33.5254 15.284 33.4974 15.164 33.4414 15.028C33.3854 14.892 33.3014 14.764 33.1894 14.644C33.0854 14.516 32.9534 14.412 32.7934 14.332C32.6414 14.244 32.4654 14.2 32.2654 14.2C31.9294 14.2 31.6534 14.276 31.4374 14.428C31.2214 14.58 31.0574 14.788 30.9454 15.052C30.8414 15.308 30.7894 15.6 30.7894 15.928C30.7894 16.296 30.8414 16.616 30.9454 16.888C31.0574 17.152 31.2254 17.356 31.4494 17.5C31.6814 17.644 31.9734 17.716 32.3254 17.716C32.4454 17.716 32.5814 17.688 32.7334 17.632C32.8854 17.568 33.0294 17.476 33.1654 17.356C33.3014 17.236 33.4054 17.092 33.4774 16.924L35.0614 17.392C34.8774 17.832 34.6334 18.184 34.3294 18.448C34.0334 18.704 33.7094 18.888 33.3574 19C33.0054 19.104 32.6534 19.156 32.3014 19.156ZM36.0248 19V12.904H37.7048V13.912C37.7688 13.752 37.8488 13.604 37.9448 13.468C38.0488 13.324 38.1728 13.2 38.3168 13.096C38.4608 12.992 38.6208 12.912 38.7968 12.856C38.9728 12.792 39.1608 12.76 39.3608 12.76C39.4248 12.76 39.5128 12.764 39.6248 12.772C39.7368 12.78 39.8208 12.792 39.8768 12.808V14.38C39.7568 14.34 39.6048 14.312 39.4208 14.296C39.2368 14.272 39.0688 14.276 38.9168 14.308C38.6048 14.372 38.3608 14.492 38.1848 14.668C38.0088 14.844 37.8848 15.072 37.8128 15.352C37.7408 15.632 37.7048 15.964 37.7048 16.348V19H36.0248ZM42.9122 19.144C42.2802 19.144 41.7522 19.04 41.3282 18.832C40.9042 18.616 40.5842 18.336 40.3682 17.992C40.1522 17.648 40.0442 17.28 40.0442 16.888L41.6762 16.9C41.6762 17.092 41.7322 17.256 41.8442 17.392C41.9562 17.52 42.1082 17.616 42.3002 17.68C42.5002 17.744 42.7322 17.776 42.9962 17.776C43.3402 17.776 43.6122 17.728 43.8122 17.632C44.0122 17.536 44.1122 17.372 44.1122 17.14C44.1122 17.004 44.0202 16.904 43.8362 16.84C43.6522 16.768 43.4122 16.712 43.1162 16.672C42.8282 16.632 42.5202 16.584 42.1922 16.528C41.8722 16.464 41.5642 16.368 41.2682 16.24C40.9802 16.112 40.7442 15.928 40.5602 15.688C40.3762 15.448 40.2842 15.132 40.2842 14.74C40.2842 14.372 40.3682 14.04 40.5362 13.744C40.7122 13.44 40.9922 13.2 41.3762 13.024C41.7602 12.848 42.2602 12.76 42.8762 12.76C43.3962 12.76 43.8282 12.824 44.1722 12.952C44.5242 13.08 44.8042 13.248 45.0122 13.456C45.2282 13.656 45.3802 13.876 45.4682 14.116C45.5642 14.348 45.6122 14.572 45.6122 14.788H43.9802C43.9802 14.612 43.8802 14.46 43.6802 14.332C43.4802 14.196 43.2082 14.128 42.8642 14.128C42.5362 14.128 42.3002 14.176 42.1562 14.272C42.0202 14.368 41.9522 14.5 41.9522 14.668C41.9522 14.796 42.0202 14.896 42.1562 14.968C42.3002 15.04 42.4842 15.1 42.7082 15.148C42.9322 15.188 43.1802 15.232 43.4522 15.28C43.7322 15.328 44.0082 15.392 44.2802 15.472C44.5522 15.544 44.8002 15.644 45.0242 15.772C45.2482 15.892 45.4282 16.056 45.5642 16.264C45.7082 16.472 45.7802 16.736 45.7802 17.056C45.7802 17.488 45.6682 17.86 45.4442 18.172C45.2282 18.484 44.9042 18.724 44.4722 18.892C44.0482 19.06 43.5282 19.144 42.9122 19.144ZM49.2955 19.144C48.7435 19.144 48.2235 19.032 47.7355 18.808C47.2475 18.584 46.8515 18.236 46.5475 17.764C46.2435 17.292 46.0915 16.688 46.0915 15.952C46.0915 15.392 46.1835 14.912 46.3675 14.512C46.5515 14.112 46.7995 13.784 47.1115 13.528C47.4235 13.264 47.7675 13.072 48.1435 12.952C48.5275 12.824 48.9115 12.76 49.2955 12.76C49.8475 12.76 50.3635 12.872 50.8435 13.096C51.3315 13.32 51.7235 13.668 52.0195 14.14C52.3235 14.604 52.4755 15.208 52.4755 15.952C52.4755 16.504 52.3835 16.98 52.1995 17.38C52.0235 17.78 51.7835 18.112 51.4795 18.376C51.1755 18.64 50.8315 18.836 50.4475 18.964C50.0715 19.084 49.6875 19.144 49.2955 19.144ZM49.2955 17.704C49.7835 17.704 50.1435 17.548 50.3755 17.236C50.6075 16.916 50.7235 16.488 50.7235 15.952C50.7235 15.424 50.6075 15 50.3755 14.68C50.1515 14.36 49.7915 14.2 49.2955 14.2C48.8315 14.2 48.4715 14.36 48.2155 14.68C47.9675 15 47.8435 15.424 47.8435 15.952C47.8435 16.488 47.9675 16.916 48.2155 17.236C48.4715 17.548 48.8315 17.704 49.2955 17.704ZM53.1473 19V12.904H54.8273V13.84C54.8913 13.696 54.9793 13.56 55.0913 13.432C55.2033 13.296 55.3313 13.18 55.4753 13.084C55.6273 12.98 55.7953 12.9 55.9793 12.844C56.1633 12.788 56.3553 12.76 56.5553 12.76C57.0913 12.76 57.5273 12.864 57.8633 13.072C58.2073 13.28 58.4593 13.572 58.6193 13.948C58.7793 14.316 58.8593 14.74 58.8593 15.22V19H57.1793V15.448C57.1793 15 57.0953 14.664 56.9273 14.44C56.7593 14.216 56.5033 14.104 56.1593 14.104C55.8313 14.104 55.5673 14.184 55.3673 14.344C55.1753 14.496 55.0353 14.724 54.9473 15.028C54.8673 15.332 54.8273 15.7 54.8273 16.132V19H53.1473ZM59.9756 16.24V14.704H64.7276V16.24H59.9756ZM66.112 19V10.6H71.596V12.112H67.864V13.924H70.984V15.436H67.864V17.488H71.596V19H66.112ZM76.3432 17.788C76.2312 18.06 76.0832 18.3 75.8992 18.508C75.7232 18.708 75.5032 18.864 75.2392 18.976C74.9832 19.088 74.6792 19.144 74.3272 19.144C73.8072 19.144 73.3512 19.016 72.9592 18.76C72.5752 18.504 72.2792 18.14 72.0712 17.668C71.8632 17.188 71.7592 16.62 71.7592 15.964C71.7592 15.292 71.8672 14.72 72.0832 14.248C72.3072 13.768 72.6152 13.4 73.0072 13.144C73.4072 12.888 73.8672 12.76 74.3872 12.76C74.7232 12.76 75.0112 12.82 75.2512 12.94C75.4992 13.06 75.7072 13.216 75.8752 13.408C76.0512 13.592 76.1912 13.796 76.2952 14.02V10.6H77.9752L77.9632 16.984C77.9632 17.224 78.0152 17.388 78.1192 17.476C78.2232 17.564 78.4232 17.576 78.7192 17.512V18.832C78.6392 18.88 78.5072 18.924 78.3232 18.964C78.1472 18.996 77.9792 19.012 77.8192 19.012C77.6352 19.012 77.4272 18.972 77.1952 18.892C76.9632 18.804 76.7632 18.668 76.5952 18.484C76.4272 18.3 76.3432 18.068 76.3432 17.788ZM74.9392 17.848C75.2112 17.84 75.4472 17.76 75.6472 17.608C75.8552 17.456 76.0152 17.24 76.1272 16.96C76.2472 16.672 76.3072 16.34 76.3072 15.964C76.3072 15.612 76.2472 15.296 76.1272 15.016C76.0152 14.728 75.8552 14.5 75.6472 14.332C75.4472 14.164 75.2112 14.08 74.9392 14.08C74.6512 14.08 74.3992 14.164 74.1832 14.332C73.9752 14.5 73.8112 14.728 73.6912 15.016C73.5792 15.296 73.5232 15.612 73.5232 15.964C73.5232 16.348 73.5792 16.684 73.6912 16.972C73.8112 17.252 73.9752 17.468 74.1832 17.62C74.3992 17.772 74.6512 17.848 74.9392 17.848ZM82.1918 19.156C81.6558 19.156 81.1438 19.032 80.6558 18.784C80.1758 18.536 79.7838 18.172 79.4798 17.692C79.1838 17.212 79.0358 16.624 79.0358 15.928C79.0358 15.384 79.1238 14.916 79.2998 14.524C79.4758 14.124 79.7118 13.796 80.0078 13.54C80.3118 13.276 80.6478 13.08 81.0158 12.952C81.3918 12.824 81.7758 12.76 82.1678 12.76C82.7678 12.76 83.2878 12.892 83.7278 13.156C84.1758 13.412 84.5198 13.784 84.7598 14.272C85.0078 14.76 85.1318 15.344 85.1318 16.024V16.42H80.2958L80.2838 15.388H83.4158C83.4158 15.284 83.3878 15.164 83.3318 15.028C83.2758 14.892 83.1918 14.764 83.0798 14.644C82.9758 14.516 82.8438 14.412 82.6838 14.332C82.5318 14.244 82.3558 14.2 82.1558 14.2C81.8198 14.2 81.5438 14.276 81.3278 14.428C81.1118 14.58 80.9478 14.788 80.8358 15.052C80.7318 15.308 80.6798 15.6 80.6798 15.928C80.6798 16.296 80.7318 16.616 80.8358 16.888C80.9478 17.152 81.1158 17.356 81.3398 17.5C81.5718 17.644 81.8638 17.716 82.2158 17.716C82.3358 17.716 82.4718 17.688 82.6238 17.632C82.7758 17.568 82.9198 17.476 83.0558 17.356C83.1918 17.236 83.2958 17.092 83.3678 16.924L84.9518 17.392C84.7678 17.832 84.5238 18.184 84.2198 18.448C83.9238 18.704 83.5998 18.888 83.2478 19C82.8958 19.104 82.5438 19.156 82.1918 19.156Z" fill="black"/>
</g>
<defs>
<clipPath id="clip0_1_6">
<rect width="86" height="20" fill="white"/>
</clipPath>
</defs>
</svg>
