<svg width="151" height="91" viewBox="0 0 151 91" fill="none" xmlns="http://www.w3.org/2000/svg">
<g clip-path="url(#clip0_431_77)">
<rect width="151" height="91" fill="white"/>
<rect x="60" y="45.2548" width="64" height="64" rx="10" transform="rotate(-45 60 45.2548)" fill="#F88D00"/>
<rect x="60" y="45.2548" width="64" height="64" rx="10" transform="rotate(-45 60 45.2548)" fill="#F88D00"/>
<rect x="60" y="45.2548" width="64" height="64" rx="10" transform="rotate(-45 60 45.2548)" fill="#F88D00"/>
<rect y="45.2548" width="64" height="64" rx="10" transform="rotate(-45 0 45.2548)" fill="#00529F"/>
<rect x="60" y="45.2548" width="64" height="64" rx="10" transform="rotate(-45 60 45.2548)" fill="#F88D00" fill-opacity="0.39"/>
<path d="M36.5039 29.9336V41.582H54.4141V29.9336H49.6016V24.793H65.3789V29.9336H60.6211V60.8594H65.3789V66H49.6016V60.8594H54.4141V46.7227H36.5039V60.8594H41.3711V66H25.6211V60.8594H30.2695V29.9336H25.6211V24.793H41.3711V29.9336H36.5039Z" fill="white"/>
<path d="M116.484 52.1758V59.0664H98.8477V46.7891H114.188V41.6484H98.8477V28.1406L116.484 28.1406V35.6602H121.57V23L87.3086 23V28.1406H92.6133V59.0664H87.3086V64.207H121.57V52.1758H116.484Z" fill="white"/>
</g>
<defs>
<clipPath id="clip0_431_77">
<rect width="151" height="91" fill="white"/>
</clipPath>
</defs>
</svg>
